<?xml version="1.0" standalone="no"?>
<!DOCTYPE svg PUBLIC "-//W3C//DTD SVG 20010904//EN"
 "http://www.w3.org/TR/2001/REC-SVG-20010904/DTD/svg10.dtd">
<svg version="1.0" xmlns="http://www.w3.org/2000/svg"
 width="460.000000pt" height="149.000000pt" viewBox="0 0 460.000000 149.000000"
 preserveAspectRatio="xMidYMid meet">

<g transform="translate(0.000000,149.000000) scale(0.100000,-0.100000)"
fill="#000000" stroke="none">
<path d="M1015 1385 c-66 -14 -144 -30 -174 -36 l-53 -11 36 -37 c20 -20 36
-39 36 -42 0 -4 -28 -28 -62 -55 -94 -73 -169 -142 -210 -195 -21 -26 -45 -50
-54 -53 -8 -3 -12 -2 -9 4 3 6 -3 10 -15 10 -13 0 -19 -4 -14 -12 5 -7 3 -8
-5 -3 -17 10 -66 -42 -91 -96 -34 -76 -23 -125 60 -257 l45 -72 51 0 51 0 152
155 c168 173 155 167 228 100 21 -19 43 -35 49 -35 16 0 31 21 31 42 0 15 -3
15 -16 5 -9 -7 -12 -8 -8 -1 7 12 -26 28 -50 25 -7 -1 -13 4 -13 11 0 9 -3 9
-10 -2 -5 -8 -10 -12 -11 -7 -1 4 -2 10 -3 15 -5 22 -24 44 -30 33 -4 -6 -2
-11 3 -11 6 0 11 -5 11 -11 0 -8 -5 -7 -15 1 -9 7 -14 18 -11 25 13 36 -37 -3
-155 -117 -127 -123 -133 -127 -151 -111 -40 36 -71 110 -63 148 7 32 23 48
130 129 39 29 121 91 183 139 62 48 115 87 119 87 3 0 23 -18 44 -41 l38 -41
11 44 c6 23 18 63 26 88 9 25 24 74 33 110 10 36 22 73 26 83 9 21 9 21 -140
-8z"/>
<path d="M3952 933 c2 -20 8 -28 23 -28 31 0 28 49 -3 53 -20 3 -23 0 -20 -25z"/>
<path d="M1580 929 c-41 -12 -80 -54 -80 -87 0 -51 38 -83 115 -96 22 -4 49
-14 60 -22 50 -37 -50 -72 -114 -40 -40 21 -44 20 -58 -9 -18 -40 20 -59 119
-59 78 -1 81 0 109 32 52 58 32 123 -44 142 -64 16 -117 42 -117 56 0 31 89
46 131 23 17 -8 23 -7 35 8 7 10 14 21 14 26 1 22 -118 41 -170 26z"/>
<path d="M3036 926 c-77 -24 -130 -120 -106 -193 29 -85 102 -129 196 -116 81
10 94 24 94 100 0 61 -1 64 -22 61 -20 -3 -24 -10 -28 -57 -5 -51 -7 -55 -35
-63 -63 -17 -122 8 -151 64 -20 38 -17 73 8 118 31 53 90 71 155 47 53 -20 85
-11 56 15 -19 17 -87 39 -113 37 -8 -1 -32 -7 -54 -13z"/>
<path d="M2757 913 c-4 -3 -7 -17 -7 -30 0 -13 -7 -26 -15 -29 -8 -4 -15 -17
-15 -30 0 -15 6 -24 15 -24 12 0 15 -13 15 -55 0 -71 24 -121 61 -129 37 -7
89 3 89 18 0 21 -17 37 -32 31 -29 -11 -49 23 -46 79 3 50 4 51 36 54 26 3 32
8 32 27 0 19 -6 24 -32 27 -29 3 -33 7 -36 36 -3 28 -7 32 -31 32 -15 0 -31
-3 -34 -7z"/>
<path d="M3788 888 c-2 -26 -8 -34 -26 -36 -28 -4 -24 -26 6 -30 21 -3 22 -9
22 -85 1 -49 6 -88 13 -98 25 -32 107 -35 107 -3 0 9 -10 14 -28 14 -43 0 -52
17 -52 97 l0 73 35 0 c46 0 49 27 3 32 -28 2 -34 8 -38 33 -8 44 -38 46 -42 3z"/>
<path d="M1207 844 l-37 -35 0 -147 c0 -115 -3 -152 -15 -169 -13 -18 -100
-84 -205 -155 -14 -9 -50 -35 -80 -57 -116 -86 -131 -94 -154 -81 -45 24 -86
70 -86 95 0 24 2 25 23 14 12 -7 28 -20 35 -31 7 -10 17 -18 23 -18 5 0 9 65
9 155 0 85 -3 155 -7 155 -5 0 -29 -22 -55 -49 l-48 -49 -101 0 c-76 1 -103
-3 -110 -13 -5 -8 -9 -42 -9 -76 l0 -61 -62 -35 c-60 -33 -65 -34 -110 -24
l-48 12 0 87 0 88 29 0 c16 0 37 7 46 16 12 13 18 14 31 4 12 -11 13 -10 8 5
-6 14 -4 16 7 10 8 -5 3 4 -10 18 -30 33 -42 36 -15 5 l19 -23 -23 19 c-12 11
-20 21 -17 24 3 3 -1 12 -8 20 -9 13 -9 14 0 8 7 -4 13 -3 13 2 0 5 -13 15
-30 22 -16 7 -32 22 -36 34 -11 38 -53 66 -99 66 -22 0 -46 -5 -53 -12 -16
-16 -16 -190 0 -206 7 -7 27 -12 45 -12 l33 0 0 -88 0 -88 -43 -10 -42 -9 -3
-103 c-3 -102 -3 -102 23 -112 34 -13 156 -13 189 0 23 8 25 15 28 81 l3 73
50 27 c28 15 56 31 64 35 7 4 22 2 33 -5 12 -8 53 -11 111 -10 l92 2 3 -76 c3
-71 5 -78 33 -101 24 -20 42 -26 80 -26 45 0 57 6 146 70 54 38 107 77 118 85
11 9 63 47 115 84 52 38 112 82 132 98 69 53 98 146 81 268 -8 57 -10 60 -35
57 -24 -2 -27 1 -32 45 -4 27 -6 65 -5 86 1 20 0 39 -2 42 -3 2 -21 -12 -42
-31z"/>
<path d="M1800 740 l0 -120 38 0 37 0 1 81 c1 57 5 84 15 90 41 26 94 -13 84
-62 -4 -16 -4 -47 0 -69 6 -36 10 -40 36 -40 29 0 29 0 29 63 0 76 16 111 52
115 40 5 58 -29 58 -110 l0 -68 30 0 30 0 0 83 c0 45 -3 92 -6 105 -13 46
-101 68 -149 36 -21 -14 -26 -14 -54 0 -36 19 -74 20 -104 5 -16 -9 -22 -9
-25 0 -2 6 -19 11 -38 11 l-34 0 0 -120z"/>
<path d="M2298 848 c-31 -11 -33 -17 -15 -41 10 -14 17 -15 49 -5 31 9 41 8
62 -6 15 -9 26 -20 26 -25 0 -4 -28 -11 -62 -14 -51 -5 -67 -10 -85 -32 -29
-33 -29 -47 0 -81 24 -28 21 -27 165 -25 l52 1 0 73 c0 92 -14 133 -51 152
-32 17 -100 18 -141 3z m122 -146 c0 -27 -20 -42 -57 -42 -28 0 -33 3 -33 24
0 27 11 34 58 35 24 1 32 -3 32 -17z"/>
<path d="M2547 853 c-4 -3 -7 -57 -7 -120 l0 -113 35 0 35 0 0 63 c0 69 17
104 53 109 30 4 39 68 10 68 -10 0 -29 -7 -41 -16 -20 -14 -22 -14 -22 0 0 16
-49 23 -63 9z"/>
<path d="M3318 840 c-66 -35 -77 -139 -20 -192 33 -31 94 -42 142 -25 37 13
50 45 15 38 -11 -1 -42 -4 -68 -5 -38 -1 -52 3 -63 18 -28 39 -19 45 79 48 92
3 92 3 95 30 4 35 -21 72 -63 92 -43 21 -72 20 -117 -4z m110 -36 c12 -8 22
-24 22 -35 0 -17 -7 -19 -70 -19 -63 0 -70 2 -70 19 0 25 36 51 70 51 14 0 36
-7 48 -16z"/>
<path d="M3574 846 c-38 -17 -52 -58 -30 -91 10 -15 34 -27 73 -37 51 -12 58
-17 58 -38 0 -21 -6 -26 -32 -28 -18 -2 -48 1 -67 6 -28 8 -36 7 -41 -5 -7
-21 -4 -23 45 -34 36 -8 59 -7 111 7 25 7 42 55 30 87 -8 20 -19 27 -48 32
-73 13 -88 20 -88 46 0 23 3 24 62 23 71 -1 92 17 41 35 -41 14 -76 13 -114
-3z"/>
<path d="M3950 740 c0 -113 1 -120 20 -120 19 0 20 7 20 120 0 113 -1 120 -20
120 -19 0 -20 -7 -20 -120z"/>
<path d="M4114 845 c-96 -42 -85 -198 15 -225 120 -32 212 77 151 177 -35 58
-100 77 -166 48z m113 -47 c31 -34 36 -63 18 -97 -20 -39 -49 -54 -90 -47 -65
12 -87 96 -39 141 35 32 83 33 111 3z"/>
<path d="M4347 853 c-4 -3 -7 -57 -7 -120 l0 -113 25 0 c25 0 25 1 25 84 0 78
2 85 25 100 33 22 71 20 95 -4 17 -17 20 -33 20 -100 0 -73 2 -80 20 -80 19 0
20 7 20 93 0 50 -4 97 -8 103 -11 17 -68 44 -92 44 -12 0 -34 -7 -50 -15 -25
-13 -29 -13 -34 0 -6 16 -28 20 -39 8z"/>
<path d="M861 707 c-6 -8 -7 -18 -3 -22 4 -5 1 -5 -5 -1 -7 4 -28 -5 -48 -21
l-35 -28 0 -182 c0 -101 4 -183 9 -183 5 0 14 7 21 15 6 8 36 31 66 51 l55 36
-2 159 c-1 138 -4 159 -17 154 -13 -5 -13 -3 -1 12 7 10 9 15 5 11 -5 -4 -15
-3 -21 2 -9 7 -16 6 -24 -3z"/>
<path d="M975 529 c-11 -127 -11 -126 67 -63 61 49 66 57 55 74 -6 11 -18 20
-25 20 -8 0 -27 9 -43 21 -21 14 -29 17 -30 7 0 -7 -4 -4 -8 7 -6 14 -11 -7
-16 -66z"/>
<path d="M1513 440 c0 -36 2 -50 4 -32 2 17 2 47 0 65 -2 17 -4 3 -4 -33z"/>
<path d="M1570 440 c0 -70 17 -81 22 -14 l3 46 34 -46 c19 -25 38 -46 43 -46
4 0 7 28 6 63 l-1 62 -6 -50 -6 -50 -39 48 c-21 26 -42 47 -47 47 -5 0 -9 -27
-9 -60z"/>
<path d="M1738 490 c19 -8 22 -17 22 -60 0 -27 5 -50 10 -50 6 0 10 23 10 50
0 43 3 52 23 60 17 7 10 9 -33 9 -43 0 -50 -2 -32 -9z"/>
<path d="M1860 440 l0 -60 43 2 42 1 -37 4 c-30 3 -38 9 -38 24 0 10 5 19 11
19 8 0 8 5 -1 15 -19 22 -5 43 32 48 29 3 28 4 -9 5 l-43 2 0 -60z"/>
<path d="M2002 480 c-28 -27 -28 -65 0 -84 27 -19 69 -21 86 -4 15 15 16 38 2
38 -5 0 -10 -9 -10 -20 0 -28 -53 -28 -73 1 -29 41 10 86 63 72 16 -4 21 -3
16 5 -11 19 -60 14 -84 -8z"/>
<path d="M2150 489 c0 -5 5 -7 10 -4 6 4 24 3 41 0 24 -5 29 -11 27 -28 -2
-17 -11 -23 -40 -25 -21 -2 -38 -7 -38 -12 0 -4 9 -6 21 -3 13 4 27 -2 40 -16
23 -24 38 -29 19 -6 -10 12 -10 19 -2 27 15 15 15 51 0 66 -15 15 -78 16 -78
1z"/>
<path d="M2312 460 c-12 -23 -22 -45 -22 -49 0 -3 18 -5 40 -3 30 3 41 0 46
-12 3 -9 10 -16 14 -16 5 0 2 12 -6 28 -7 15 -14 32 -14 37 0 6 -8 20 -18 33
l-18 23 -22 -41z m43 -10 l16 -30 -31 0 c-16 0 -30 2 -30 5 0 7 23 55 26 55 2
0 10 -13 19 -30z"/>
<path d="M2435 491 c15 -6 21 -20 26 -62 l6 -54 1 57 c2 50 5 57 25 61 12 2 0
5 -28 5 -34 0 -43 -2 -30 -7z"/>
<path d="M2560 492 c0 -4 18 -6 40 -4 22 2 40 6 40 8 0 2 -18 4 -40 4 -22 0
-40 -3 -40 -8z"/>
<path d="M2690 440 l0 -60 43 2 42 1 -38 4 -38 4 3 47 c3 47 3 47 38 44 42 -3
52 -17 45 -60 -4 -23 -3 -32 4 -27 6 3 11 21 11 40 0 41 -29 65 -77 65 l-33 0
0 -60z"/>
<path d="M2916 491 c-4 -5 12 -7 36 -4 57 8 61 13 10 13 -22 0 -43 -4 -46 -9z"/>
<path d="M3051 438 c1 -35 4 -53 6 -40 2 12 12 22 21 22 8 0 27 -10 40 -22
l25 -23 -12 22 c-7 14 -8 24 -1 28 14 9 13 48 -2 63 -7 7 -27 12 -45 12 l-33
0 1 -62z m57 46 c15 -4 22 -14 22 -30 0 -21 -5 -24 -35 -24 -32 0 -35 2 -35
30 0 31 7 34 48 24z"/>
<path d="M3190 441 c0 -34 4 -61 10 -61 6 0 10 9 10 19 0 15 8 21 31 23 71 7
63 71 -10 76 l-41 3 0 -60z m84 29 c17 -17 -3 -40 -34 -40 -27 0 -30 3 -30 31
0 29 2 31 28 24 15 -3 31 -10 36 -15z"/>
<path d="M3400 485 c-18 -22 -5 -43 32 -53 49 -12 49 -40 1 -45 l-38 -4 36 -1
c46 -2 67 18 44 42 -9 9 -25 16 -34 16 -10 0 -24 6 -30 14 -17 20 10 38 46 31
21 -5 24 -4 13 4 -22 15 -56 13 -70 -4z"/>
<path d="M3537 482 c-10 -10 -17 -33 -17 -50 0 -36 26 -55 68 -49 25 4 24 4
-5 6 -37 1 -57 28 -47 65 7 28 36 39 71 25 22 -8 25 -14 21 -49 -2 -22 0 -36
3 -32 8 8 12 29 10 54 -3 45 -73 65 -104 30z"/>
<path d="M3690 440 l0 -60 43 2 c36 1 38 2 10 5 -33 4 -33 5 -33 59 0 30 -4
54 -10 54 -6 0 -10 -27 -10 -60z"/>
<path d="M3812 454 c-2 -59 12 -78 55 -71 27 4 27 4 -4 6 -35 1 -39 8 -46 81
-3 26 -4 22 -5 -16z"/>
<path d="M3903 450 c0 -30 2 -43 4 -27 2 15 2 39 0 55 -2 15 -4 2 -4 -28z"/>
<path d="M3968 493 c20 -4 22 -10 22 -59 0 -30 5 -54 10 -54 6 0 10 24 10 54
0 49 2 55 23 59 12 2 -3 4 -33 4 -30 0 -45 -2 -32 -4z"/>
<path d="M4084 485 c-4 -8 -2 -36 4 -63 l10 -47 1 63 c1 61 -4 77 -15 47z"/>
<path d="M4172 484 c-26 -18 -30 -65 -6 -88 24 -24 80 -20 98 6 22 31 20 51
-7 76 -27 26 -54 28 -85 6z m63 -4 c23 -9 26 -15 23 -47 -3 -36 -5 -38 -41
-41 -32 -3 -38 0 -46 21 -12 32 -4 65 18 70 9 3 17 5 18 6 1 0 14 -3 28 -9z"/>
<path d="M4320 440 c0 -33 4 -60 10 -60 6 0 10 19 10 43 l1 42 37 -42 c21 -24
41 -43 45 -43 4 0 6 28 5 63 -1 56 -2 57 -5 15 -2 -27 -8 -48 -12 -48 -5 0
-24 20 -42 45 -19 24 -37 45 -41 45 -5 0 -8 -27 -8 -60z"/>
<path d="M4492 488 c-22 -22 -13 -45 20 -54 46 -14 50 -44 6 -45 -18 -1 -25
-3 -15 -6 31 -8 67 6 67 26 0 12 -12 22 -40 30 -41 12 -53 34 -24 45 9 4 26 4
37 0 13 -4 17 -2 13 5 -9 15 -49 14 -64 -1z"/>
<path d="M2560 438 c0 -4 14 -8 30 -8 17 0 30 2 30 4 0 2 -13 6 -30 8 -16 3
-30 1 -30 -4z"/>
<path d="M2578 383 c12 -2 32 -2 45 0 12 2 2 4 -23 4 -25 0 -35 -2 -22 -4z"/>
<path d="M2938 383 c12 -2 32 -2 45 0 12 2 2 4 -23 4 -25 0 -35 -2 -22 -4z"/>
</g>
</svg>
